<mxfile host="app.diagrams.net" modified="2024-06-18T14:08:22.696Z" agent="Mozilla/5.0 (Windows NT 10.0; Win64; x64) AppleWebKit/537.36 (KHTML, like Gecko) Chrome/126.0.0.0 Safari/537.36" version="24.5.5" etag="PQuWUY2AyFzQZhj68rj-" type="github">
  <diagram name="Página-1" id="Nbf47BhxfivFI1lEi6S7">
    <mxGraphModel>
      <root>
        <mxCell id="0" />
        <mxCell id="1" parent="0" />
        <mxCell id="2" value="Usuario" style="swimlane;fontStyle=1;align=center;verticalAlign=top;childLayout=stackLayout;horizontal=1;startSize=27.8;horizontalStack=0;resizeParent=1;resizeParentMax=0;resizeLast=0;collapsible=0;marginBottom=0;" vertex="1" parent="1">
          <mxGeometry x="178" y="8" width="136" height="147" as="geometry" />
        </mxCell>
        <mxCell id="3" value="- id: int" style="text;strokeColor=none;fillColor=none;align=left;verticalAlign=top;spacingLeft=4;spacingRight=4;overflow=hidden;rotatable=0;points=[[0,0.5],[1,0.5]];portConstraint=eastwest;" vertex="1" parent="2">
          <mxGeometry y="28" width="136" height="28" as="geometry" />
        </mxCell>
        <mxCell id="4" value="- nombre: string" style="text;strokeColor=none;fillColor=none;align=left;verticalAlign=top;spacingLeft=4;spacingRight=4;overflow=hidden;rotatable=0;points=[[0,0.5],[1,0.5]];portConstraint=eastwest;" vertex="1" parent="2">
          <mxGeometry y="56" width="136" height="28" as="geometry" />
        </mxCell>
        <mxCell id="5" style="line;strokeWidth=1;fillColor=none;align=left;verticalAlign=middle;spacingTop=-1;spacingLeft=3;spacingRight=3;rotatable=0;labelPosition=right;points=[];portConstraint=eastwest;strokeColor=inherit;" vertex="1" parent="2">
          <mxGeometry y="83" width="136" height="8" as="geometry" />
        </mxCell>
        <mxCell id="6" value="+login() : : void" style="text;strokeColor=none;fillColor=none;align=left;verticalAlign=top;spacingLeft=4;spacingRight=4;overflow=hidden;rotatable=0;points=[[0,0.5],[1,0.5]];portConstraint=eastwest;" vertex="1" parent="2">
          <mxGeometry y="91" width="136" height="28" as="geometry" />
        </mxCell>
        <mxCell id="7" value="+logout() : : void" style="text;strokeColor=none;fillColor=none;align=left;verticalAlign=top;spacingLeft=4;spacingRight=4;overflow=hidden;rotatable=0;points=[[0,0.5],[1,0.5]];portConstraint=eastwest;" vertex="1" parent="2">
          <mxGeometry y="119" width="136" height="28" as="geometry" />
        </mxCell>
        <mxCell id="8" value="Administrador" style="swimlane;fontStyle=1;align=center;verticalAlign=top;childLayout=stackLayout;horizontal=1;startSize=29.149999618530273;horizontalStack=0;resizeParent=1;resizeParentMax=0;resizeLast=0;collapsible=0;marginBottom=0;" vertex="1" parent="1">
          <mxGeometry x="8" y="246" width="217" height="125" as="geometry" />
        </mxCell>
        <mxCell id="9" value="- id: int" style="text;strokeColor=none;fillColor=none;align=left;verticalAlign=top;spacingLeft=4;spacingRight=4;overflow=hidden;rotatable=0;points=[[0,0.5],[1,0.5]];portConstraint=eastwest;" vertex="1" parent="8">
          <mxGeometry y="29" width="217" height="29" as="geometry" />
        </mxCell>
        <mxCell id="10" value="- nombre: string" style="text;strokeColor=none;fillColor=none;align=left;verticalAlign=top;spacingLeft=4;spacingRight=4;overflow=hidden;rotatable=0;points=[[0,0.5],[1,0.5]];portConstraint=eastwest;" vertex="1" parent="8">
          <mxGeometry y="58" width="217" height="29" as="geometry" />
        </mxCell>
        <mxCell id="11" style="line;strokeWidth=1;fillColor=none;align=left;verticalAlign=middle;spacingTop=-1;spacingLeft=3;spacingRight=3;rotatable=0;labelPosition=right;points=[];portConstraint=eastwest;strokeColor=inherit;" vertex="1" parent="8">
          <mxGeometry y="87" width="217" height="8" as="geometry" />
        </mxCell>
        <mxCell id="12" value="+gestionarUsuarios() : : void" style="text;strokeColor=none;fillColor=none;align=left;verticalAlign=top;spacingLeft=4;spacingRight=4;overflow=hidden;rotatable=0;points=[[0,0.5],[1,0.5]];portConstraint=eastwest;" vertex="1" parent="8">
          <mxGeometry y="95" width="217" height="29" as="geometry" />
        </mxCell>
        <mxCell id="13" value="BDD" style="swimlane;fontStyle=1;align=center;verticalAlign=top;childLayout=stackLayout;horizontal=1;startSize=26.899998982747395;horizontalStack=0;resizeParent=1;resizeParentMax=0;resizeLast=0;collapsible=0;marginBottom=0;" vertex="1" parent="1">
          <mxGeometry x="275" y="223" width="201" height="169" as="geometry" />
        </mxCell>
        <mxCell id="14" value="- nombre: string" style="text;strokeColor=none;fillColor=none;align=left;verticalAlign=top;spacingLeft=4;spacingRight=4;overflow=hidden;rotatable=0;points=[[0,0.5],[1,0.5]];portConstraint=eastwest;" vertex="1" parent="13">
          <mxGeometry y="27" width="201" height="27" as="geometry" />
        </mxCell>
        <mxCell id="15" value="- tamaño: int" style="text;strokeColor=none;fillColor=none;align=left;verticalAlign=top;spacingLeft=4;spacingRight=4;overflow=hidden;rotatable=0;points=[[0,0.5],[1,0.5]];portConstraint=eastwest;" vertex="1" parent="13">
          <mxGeometry y="54" width="201" height="27" as="geometry" />
        </mxCell>
        <mxCell id="16" value="- tipo: string" style="text;strokeColor=none;fillColor=none;align=left;verticalAlign=top;spacingLeft=4;spacingRight=4;overflow=hidden;rotatable=0;points=[[0,0.5],[1,0.5]];portConstraint=eastwest;" vertex="1" parent="13">
          <mxGeometry y="81" width="201" height="27" as="geometry" />
        </mxCell>
        <mxCell id="17" style="line;strokeWidth=1;fillColor=none;align=left;verticalAlign=middle;spacingTop=-1;spacingLeft=3;spacingRight=3;rotatable=0;labelPosition=right;points=[];portConstraint=eastwest;strokeColor=inherit;" vertex="1" parent="13">
          <mxGeometry y="108" width="201" height="8" as="geometry" />
        </mxCell>
        <mxCell id="18" value="+abrirConexion() : : void" style="text;strokeColor=none;fillColor=none;align=left;verticalAlign=top;spacingLeft=4;spacingRight=4;overflow=hidden;rotatable=0;points=[[0,0.5],[1,0.5]];portConstraint=eastwest;" vertex="1" parent="13">
          <mxGeometry y="116" width="201" height="27" as="geometry" />
        </mxCell>
        <mxCell id="19" value="+cerrarConexion() : : void" style="text;strokeColor=none;fillColor=none;align=left;verticalAlign=top;spacingLeft=4;spacingRight=4;overflow=hidden;rotatable=0;points=[[0,0.5],[1,0.5]];portConstraint=eastwest;" vertex="1" parent="13">
          <mxGeometry y="142" width="201" height="27" as="geometry" />
        </mxCell>
        <mxCell id="20" value="Interface" style="swimlane;fontStyle=1;align=center;verticalAlign=top;childLayout=stackLayout;horizontal=1;startSize=26.91428484235491;horizontalStack=0;resizeParent=1;resizeParentMax=0;resizeLast=0;collapsible=0;marginBottom=0;" vertex="1" parent="1">
          <mxGeometry x="64" y="443" width="105" height="102" as="geometry" />
        </mxCell>
        <mxCell id="21" value="- tipo: string" style="text;strokeColor=none;fillColor=none;align=left;verticalAlign=top;spacingLeft=4;spacingRight=4;overflow=hidden;rotatable=0;points=[[0,0.5],[1,0.5]];portConstraint=eastwest;" vertex="1" parent="20">
          <mxGeometry y="27" width="105" height="27" as="geometry" />
        </mxCell>
        <mxCell id="22" value="implementa" style="text;strokeColor=none;fillColor=none;align=left;verticalAlign=top;spacingLeft=4;spacingRight=4;overflow=hidden;rotatable=0;points=[[0,0.5],[1,0.5]];portConstraint=eastwest;" vertex="1" parent="20">
          <mxGeometry y="54" width="105" height="27" as="geometry" />
        </mxCell>
        <mxCell id="23" style="line;strokeWidth=1;fillColor=none;align=left;verticalAlign=middle;spacingTop=-1;spacingLeft=3;spacingRight=3;rotatable=0;labelPosition=right;points=[];portConstraint=eastwest;strokeColor=inherit;" vertex="1" parent="20">
          <mxGeometry y="81" width="105" height="13" as="geometry" />
        </mxCell>
        <mxCell id="24" value="" style="curved=1;startArrow=block;startSize=16;startFill=0;endArrow=none;exitX=0;exitY=0.89;entryX=0.5;entryY=0;" edge="1" parent="1" source="2" target="8">
          <mxGeometry relative="1" as="geometry">
            <Array as="points">
              <mxPoint x="117" y="189" />
            </Array>
          </mxGeometry>
        </mxCell>
        <mxCell id="25" value="utiliza" style="curved=1;startArrow=diamondThin;startSize=14;startFill=1;endArrow=none;exitX=1;exitY=0.89;entryX=0.5;entryY=0;" edge="1" parent="1" source="2" target="13">
          <mxGeometry relative="1" as="geometry">
            <Array as="points">
              <mxPoint x="375" y="189" />
            </Array>
          </mxGeometry>
        </mxCell>
        <mxCell id="26" value="1" style="edgeLabel;resizable=0;labelBackgroundColor=none;fontSize=12;align=right;verticalAlign=top;" vertex="1" parent="25">
          <mxGeometry x="-1" relative="1" as="geometry" />
        </mxCell>
        <mxCell id="27" value="1..*" style="edgeLabel;resizable=0;labelBackgroundColor=none;fontSize=12;align=left;verticalAlign=bottom;" vertex="1" parent="25">
          <mxGeometry x="1" relative="1" as="geometry" />
        </mxCell>
        <mxCell id="28" value="" style="curved=1;startArrow=none;endArrow=open;endSize=12;exitX=0.5;exitY=1;entryX=0.5;entryY=0;" edge="1" parent="1" source="8" target="20">
          <mxGeometry relative="1" as="geometry">
            <Array as="points" />
          </mxGeometry>
        </mxCell>
      </root>
    </mxGraphModel>
  </diagram>
</mxfile>
